<svg xmlns="http://www.w3.org/2000/svg" xmlns:xlink="http://www.w3.org/1999/xlink" width="500" zoomAndPan="magnify" viewBox="0 0 375 374.999991" height="500" preserveAspectRatio="xMidYMid meet" version="1.0"><defs><g/><clipPath id="id1"><path d="M 71.652344 71.652344 L 303.402344 71.652344 L 303.402344 303.402344 L 71.652344 303.402344 Z M 71.652344 71.652344 " clip-rule="nonzero"/></clipPath><clipPath id="id2"><path d="M 225.15625 131.125 L 243.90625 131.125 L 243.90625 159.625 L 225.15625 159.625 Z M 225.15625 131.125 " clip-rule="nonzero"/></clipPath><clipPath id="id3"><path d="M 220.488281 137.824219 L 230.238281 137.824219 L 230.238281 152.824219 L 220.488281 152.824219 Z M 220.488281 137.824219 " clip-rule="nonzero"/></clipPath></defs><g clip-path="url(#id1)"><path fill="#e34234" d="M 303.402344 187.527344 C 303.402344 251.523438 251.523438 303.402344 187.527344 303.402344 C 123.53125 303.402344 71.652344 251.523438 71.652344 187.527344 C 71.652344 123.53125 123.53125 71.652344 187.527344 71.652344 C 251.523438 71.652344 303.402344 123.53125 303.402344 187.527344 Z M 131.347656 125.730469 C 128.246094 125.730469 125.730469 128.246094 125.730469 131.347656 L 125.730469 243.710938 C 125.730469 246.8125 128.246094 249.328125 131.347656 249.328125 L 198.765625 249.328125 C 201.867188 249.328125 204.382812 246.8125 204.382812 243.710938 L 204.382812 215.621094 C 204.382812 212.515625 201.867188 210 198.765625 210 L 165.054688 210 L 165.054688 165.054688 L 243.710938 165.054688 C 246.8125 165.054688 249.328125 162.539062 249.328125 159.4375 L 249.328125 131.347656 C 249.328125 128.246094 246.8125 125.730469 243.710938 125.730469 Z M 167.863281 173.484375 C 167.863281 170.382812 170.382812 167.863281 173.484375 167.863281 L 243.710938 167.863281 C 246.8125 167.863281 249.328125 170.382812 249.328125 173.484375 L 249.328125 243.710938 C 249.328125 246.8125 246.8125 249.328125 243.710938 249.328125 L 212.808594 249.328125 C 209.707031 249.328125 207.191406 246.8125 207.191406 243.710938 L 207.191406 207.191406 L 173.484375 207.191406 C 170.382812 207.191406 167.863281 204.675781 167.863281 201.574219 Z M 167.863281 173.484375 " fill-opacity="1" fill-rule="evenodd"/></g><g clip-path="url(#id2)"><path fill="#ff1616" d="M 227.996094 159.621094 C 226.078125 159.621094 225.15625 157.304688 226.566406 156.023438 L 230.449219 152.496094 L 237.296875 146.273438 C 237.425781 146.15625 237.523438 146.023438 237.59375 145.863281 C 237.664062 145.707031 237.699219 145.542969 237.699219 145.375 C 237.699219 145.203125 237.664062 145.039062 237.59375 144.882812 C 237.523438 144.726562 237.425781 144.589844 237.296875 144.472656 L 230.449219 138.25 L 226.570312 134.722656 C 225.160156 133.441406 226.082031 131.128906 228 131.128906 C 228.546875 131.128906 229.023438 131.308594 229.429688 131.675781 L 236.660156 138.25 L 243.511719 144.472656 C 243.636719 144.589844 243.734375 144.726562 243.804688 144.882812 C 243.875 145.039062 243.910156 145.203125 243.910156 145.375 C 243.910156 145.542969 243.875 145.707031 243.804688 145.863281 C 243.734375 146.023438 243.636719 146.15625 243.511719 146.273438 L 236.660156 152.496094 L 229.425781 159.070312 C 229.019531 159.4375 228.542969 159.617188 227.996094 159.617188 Z M 227.996094 159.621094 " fill-opacity="1" fill-rule="nonzero"/></g><g fill="#ffffff" fill-opacity="1"><g transform="translate(144.111509, 272.800837)"><g><path d="M 1.34375 -9.929688 C 1.230469 -8.980469 1.089844 -8.027344 0.949219 -7.050781 C 0.753906 -5.621094 0.617188 -4.585938 0.503906 -3.945312 C 0.390625 -3.050781 0.335938 -2.433594 0.28125 -2.097656 C 0.28125 -1.902344 0.25 -1.707031 0.25 -1.539062 C 0.25 -1.175781 0.308594 -0.894531 0.417969 -0.699219 C 0.585938 -0.390625 0.949219 -0.195312 1.511719 -0.0820312 C 1.902344 -0.0546875 2.601562 -0.0273438 3.664062 -0.0273438 L 10.097656 -0.0273438 C 10.042969 0.53125 9.984375 0.894531 9.929688 1.0625 C 9.875 1.285156 9.816406 1.453125 9.707031 1.566406 C 9.621094 1.648438 9.484375 1.707031 9.285156 1.761719 C 9.117188 1.761719 8.785156 1.789062 8.28125 1.789062 L 3.441406 1.789062 C 2.601562 1.789062 1.984375 1.789062 1.621094 1.847656 C 1.148438 1.902344 0.785156 1.984375 0.53125 2.152344 C 0.195312 2.351562 -0.0820312 2.769531 -0.28125 3.382812 C -0.390625 3.75 -0.585938 4.53125 -0.839844 5.734375 L 9.285156 5.734375 C 10.628906 5.734375 11.496094 5.679688 11.886719 5.621094 C 12.390625 5.539062 12.726562 5.371094 12.953125 5.117188 C 13.203125 4.839844 13.398438 4.417969 13.511719 3.832031 C 13.59375 3.441406 13.707031 2.769531 13.820312 1.789062 L 14.070312 -0.0273438 L 14.628906 -3.945312 L 14.964844 -6.433594 L 15.46875 -9.929688 C 15.550781 -10.65625 15.609375 -11.1875 15.609375 -11.46875 L 15.609375 -12.558594 C 15.582031 -12.980469 15.46875 -13.257812 15.246094 -13.425781 C 15.132812 -13.566406 14.9375 -13.652344 14.6875 -13.707031 C 14.519531 -13.761719 14.265625 -13.820312 13.957031 -13.820312 C 13.652344 -13.875 13.007812 -13.875 12.027344 -13.875 L 5.875 -13.875 C 4.753906 -13.875 4 -13.875 3.609375 -13.820312 C 2.992188 -13.761719 2.574219 -13.59375 2.292969 -13.34375 C 2.070312 -13.117188 1.875 -12.699219 1.707031 -12.113281 C 1.648438 -11.777344 1.511719 -11.050781 1.34375 -9.929688 Z M 6.320312 -9.929688 L 11.496094 -9.929688 L 10.796875 -4.949219 C 10.742188 -4.644531 10.714844 -4.417969 10.65625 -4.308594 C 10.628906 -4.195312 10.601562 -4.140625 10.519531 -4.082031 C 10.460938 -4.027344 10.351562 -4 10.210938 -3.972656 C 10.097656 -3.972656 9.902344 -3.945312 9.59375 -3.945312 L 4.503906 -3.945312 L 4.839844 -6.519531 L 5.175781 -8.894531 C 5.230469 -9.175781 5.257812 -9.34375 5.257812 -9.425781 C 5.316406 -9.59375 5.34375 -9.707031 5.398438 -9.761719 C 5.453125 -9.847656 5.566406 -9.902344 5.679688 -9.902344 C 5.789062 -9.929688 5.984375 -9.929688 6.320312 -9.929688 Z M 6.320312 -9.929688 "/></g></g></g><g fill="#ffffff" fill-opacity="1"><g transform="translate(159.999845, 272.800837)"><g><path d="M 12.753906 -13.875 L 1.929688 -13.875 L 1.929688 -13.398438 C 1.929688 -12.671875 1.957031 -12.113281 1.957031 -11.777344 C 2.015625 -11.160156 2.125 -10.742188 2.292969 -10.488281 C 2.488281 -10.238281 2.824219 -10.070312 3.328125 -9.984375 C 3.664062 -9.957031 4.363281 -9.929688 5.371094 -9.929688 L 11.523438 -9.929688 C 11.496094 -9.621094 11.46875 -9.425781 11.441406 -9.316406 C 11.441406 -9.203125 11.414062 -9.117188 11.355469 -9.0625 C 11.300781 -9.007812 11.21875 -8.953125 11.105469 -8.921875 C 11.050781 -8.921875 10.882812 -8.894531 10.65625 -8.894531 L 4.8125 -8.894531 C 3.777344 -8.894531 3.050781 -8.867188 2.65625 -8.8125 C 2.183594 -8.753906 1.816406 -8.585938 1.566406 -8.335938 C 1.34375 -8.113281 1.148438 -7.664062 1.007812 -6.992188 C 0.949219 -6.65625 0.839844 -5.984375 0.699219 -4.980469 L 0.53125 -3.945312 C 0.390625 -2.824219 0.308594 -2.070312 0.28125 -1.679688 L 0.28125 -1.511719 C 0.28125 -1.0625 0.335938 -0.753906 0.503906 -0.53125 C 0.671875 -0.335938 0.949219 -0.195312 1.34375 -0.113281 C 1.734375 -0.0546875 2.601562 0 3.945312 0 L 10.015625 0 C 11.414062 0 12.308594 -0.0546875 12.699219 -0.113281 C 13.089844 -0.195312 13.398438 -0.308594 13.621094 -0.476562 C 13.875 -0.671875 14.070312 -0.980469 14.183594 -1.371094 C 14.320312 -1.761719 14.488281 -2.601562 14.65625 -3.945312 L 15.050781 -6.796875 L 15.496094 -9.929688 C 15.636719 -10.9375 15.71875 -11.609375 15.71875 -11.945312 C 15.75 -12.113281 15.75 -12.222656 15.75 -12.335938 C 15.75 -12.921875 15.609375 -13.316406 15.328125 -13.511719 C 15.160156 -13.652344 14.882812 -13.734375 14.488281 -13.789062 C 14.152344 -13.847656 13.566406 -13.875 12.753906 -13.875 Z M 5.316406 -4.980469 L 10.824219 -4.980469 C 10.796875 -4.671875 10.769531 -4.476562 10.742188 -4.363281 C 10.714844 -4.25 10.683594 -4.140625 10.628906 -4.082031 C 10.601562 -4.027344 10.546875 -4 10.433594 -3.972656 C 10.378906 -3.972656 10.210938 -3.945312 9.984375 -3.945312 L 4.503906 -3.945312 C 4.558594 -4.167969 4.585938 -4.335938 4.585938 -4.417969 C 4.617188 -4.644531 4.644531 -4.785156 4.699219 -4.839844 C 4.753906 -4.894531 4.8125 -4.949219 4.894531 -4.949219 C 4.949219 -4.980469 5.089844 -4.980469 5.316406 -4.980469 Z M 5.316406 -4.980469 "/></g></g></g><g fill="#ffffff" fill-opacity="1"><g transform="translate(176.000069, 272.800837)"><g><path d="M 1.679688 -9.929688 L 1.539062 -8.894531 L 0.980469 -4.949219 L 0.839844 -3.945312 L 0.558594 -1.957031 C 0.53125 -1.734375 0.503906 -1.566406 0.476562 -1.453125 C 0.417969 -1.316406 0.363281 -1.203125 0.28125 -1.0625 C 0.222656 -0.949219 0.0820312 -0.785156 -0.140625 -0.617188 C -0.25 -0.503906 -0.476562 -0.308594 -0.839844 0 L 0.449219 0 C 1.511719 0 2.210938 -0.0273438 2.574219 -0.0546875 C 3.105469 -0.113281 3.496094 -0.25 3.75 -0.449219 C 4.027344 -0.644531 4.25 -0.980469 4.363281 -1.484375 C 4.476562 -1.875 4.644531 -2.683594 4.8125 -3.945312 L 4.949219 -4.949219 L 5.511719 -8.894531 C 5.566406 -9.175781 5.59375 -9.34375 5.59375 -9.425781 C 5.652344 -9.59375 5.679688 -9.734375 5.734375 -9.789062 C 5.816406 -9.875 5.929688 -9.902344 6.070312 -9.902344 C 6.183594 -9.929688 6.378906 -9.929688 6.683594 -9.929688 L 6.546875 -8.894531 L 5.984375 -4.949219 L 5.847656 -3.945312 L 5.285156 0 C 6.742188 0 7.664062 -0.0546875 8.054688 -0.140625 C 8.449219 -0.25 8.726562 -0.390625 8.894531 -0.558594 C 9.117188 -0.785156 9.316406 -1.148438 9.425781 -1.621094 C 9.539062 -2.015625 9.652344 -2.769531 9.816406 -3.945312 L 9.957031 -4.949219 L 10.519531 -8.894531 C 10.574219 -9.148438 10.601562 -9.316406 10.601562 -9.398438 C 10.65625 -9.59375 10.683594 -9.707031 10.742188 -9.761719 C 10.824219 -9.847656 10.9375 -9.902344 11.050781 -9.902344 C 11.160156 -9.929688 11.414062 -9.929688 11.804688 -9.929688 L 11.664062 -8.894531 L 11.105469 -4.949219 L 10.964844 -3.945312 L 10.40625 0 C 11.804688 0 12.699219 -0.0546875 13.089844 -0.113281 C 13.566406 -0.222656 13.902344 -0.390625 14.125 -0.644531 C 14.351562 -0.921875 14.488281 -1.316406 14.601562 -1.847656 C 14.6875 -2.210938 14.796875 -2.910156 14.9375 -3.945312 L 15.078125 -4.949219 L 15.636719 -8.894531 L 15.777344 -9.929688 C 15.945312 -11.160156 16.027344 -11.945312 16.027344 -12.308594 C 16.027344 -12.8125 15.945312 -13.175781 15.75 -13.398438 C 15.582031 -13.59375 15.300781 -13.734375 14.882812 -13.789062 C 14.546875 -13.847656 13.984375 -13.875 13.203125 -13.875 C 13.035156 -13.875 12.753906 -13.875 12.363281 -13.847656 L 6.210938 -13.847656 C 5.816406 -13.875 5.511719 -13.875 5.34375 -13.875 C 4.558594 -13.875 4 -13.847656 3.664062 -13.789062 C 3.1875 -13.734375 2.824219 -13.59375 2.601562 -13.371094 C 2.351562 -13.148438 2.152344 -12.726562 2.015625 -12.140625 C 1.957031 -11.777344 1.847656 -11.050781 1.679688 -9.929688 Z M 1.679688 -9.929688 "/></g></g></g><g fill="#ffffff" fill-opacity="1"><g transform="translate(192.280014, 272.800837)"><g><path d="M 6.992188 -19.582031 C 5.707031 -19.582031 4.839844 -19.554688 4.417969 -19.496094 C 3.917969 -19.414062 3.550781 -19.21875 3.300781 -18.9375 C 3.105469 -18.714844 2.9375 -18.292969 2.824219 -17.734375 C 2.742188 -17.398438 2.628906 -16.699219 2.460938 -15.636719 L 2.378906 -14.882812 L 6.351562 -14.882812 Z M 2.238281 -13.875 L 0.558594 -2.042969 C 0.53125 -1.761719 0.503906 -1.59375 0.449219 -1.484375 C 0.417969 -1.34375 0.363281 -1.203125 0.25 -1.0625 C 0.167969 -0.949219 0.0273438 -0.8125 -0.195312 -0.585938 C -0.308594 -0.476562 -0.503906 -0.28125 -0.839844 0 L 0.476562 0 C 1.484375 0 2.183594 -0.0273438 2.546875 -0.0546875 C 3.160156 -0.113281 3.609375 -0.28125 3.886719 -0.53125 C 4.140625 -0.785156 4.335938 -1.203125 4.449219 -1.789062 C 4.558594 -2.152344 4.671875 -2.851562 4.8125 -3.917969 L 6.210938 -13.875 Z M 2.238281 -13.875 "/></g></g></g><g fill="#ffffff" fill-opacity="1"><g transform="translate(198.713668, 272.800837)"><g><path d="M 1.679688 -9.902344 L 1.539062 -8.894531 L 0.980469 -4.949219 L 0.839844 -3.917969 L 0.558594 -1.957031 C 0.53125 -1.679688 0.503906 -1.484375 0.449219 -1.371094 C 0.417969 -1.257812 0.363281 -1.175781 0.308594 -1.0625 C 0.222656 -0.949219 0.0820312 -0.8125 -0.140625 -0.617188 C -0.25 -0.503906 -0.476562 -0.308594 -0.839844 0 L 0.449219 0 C 1.539062 0 2.265625 -0.0273438 2.65625 -0.0546875 C 3.273438 -0.140625 3.691406 -0.308594 3.945312 -0.585938 C 4.167969 -0.867188 4.363281 -1.285156 4.476562 -1.875 C 4.558594 -2.238281 4.671875 -2.910156 4.8125 -3.917969 L 4.949219 -4.949219 L 5.511719 -8.894531 C 5.566406 -9.203125 5.59375 -9.398438 5.59375 -9.484375 C 5.652344 -9.652344 5.734375 -9.761719 5.789062 -9.816406 C 5.847656 -9.875 5.957031 -9.902344 6.070312 -9.902344 C 6.125 -9.929688 6.210938 -9.929688 6.320312 -9.929688 C 6.433594 -9.929688 6.546875 -9.929688 6.683594 -9.902344 L 11.804688 -9.902344 L 11.664062 -8.894531 L 11.105469 -4.949219 L 10.964844 -3.917969 L 10.40625 0 C 11.804688 0 12.699219 -0.0546875 13.089844 -0.113281 C 13.566406 -0.222656 13.902344 -0.390625 14.125 -0.644531 C 14.292969 -0.867188 14.433594 -1.175781 14.546875 -1.621094 C 14.65625 -1.984375 14.769531 -2.742188 14.9375 -3.917969 L 15.078125 -4.949219 L 15.636719 -8.894531 L 15.777344 -9.902344 C 15.945312 -11.132812 16.027344 -11.945312 16.027344 -12.308594 C 16.027344 -12.921875 15.886719 -13.316406 15.609375 -13.511719 C 15.386719 -13.679688 14.964844 -13.789062 14.378906 -13.820312 C 14.097656 -13.847656 13.707031 -13.847656 13.203125 -13.847656 L 5.34375 -13.847656 C 4.53125 -13.847656 3.945312 -13.820312 3.582031 -13.761719 C 3.078125 -13.707031 2.683594 -13.511719 2.460938 -13.203125 C 2.265625 -12.980469 2.097656 -12.558594 1.984375 -12 C 1.929688 -11.664062 1.816406 -10.964844 1.679688 -9.902344 Z M 1.679688 -9.902344 "/></g></g></g><g fill="#ffffff" fill-opacity="1"><g transform="translate(214.993612, 272.800837)"><g><path d="M 1.34375 -9.929688 C 1.230469 -8.980469 1.089844 -8.027344 0.949219 -7.050781 C 0.753906 -5.621094 0.617188 -4.585938 0.503906 -3.945312 C 0.390625 -3.050781 0.335938 -2.433594 0.28125 -2.097656 C 0.28125 -1.902344 0.25 -1.707031 0.25 -1.539062 C 0.25 -1.175781 0.308594 -0.894531 0.417969 -0.699219 C 0.585938 -0.390625 0.949219 -0.195312 1.511719 -0.0820312 C 1.902344 -0.0546875 2.601562 -0.0273438 3.664062 -0.0273438 L 10.097656 -0.0273438 C 10.042969 0.53125 9.984375 0.894531 9.929688 1.0625 C 9.875 1.285156 9.816406 1.453125 9.707031 1.566406 C 9.621094 1.648438 9.484375 1.707031 9.285156 1.761719 C 9.117188 1.761719 8.785156 1.789062 8.28125 1.789062 L 3.441406 1.789062 C 2.601562 1.789062 1.984375 1.789062 1.621094 1.847656 C 1.148438 1.902344 0.785156 1.984375 0.53125 2.152344 C 0.195312 2.351562 -0.0820312 2.769531 -0.28125 3.382812 C -0.390625 3.75 -0.585938 4.53125 -0.839844 5.734375 L 9.285156 5.734375 C 10.628906 5.734375 11.496094 5.679688 11.886719 5.621094 C 12.390625 5.539062 12.726562 5.371094 12.953125 5.117188 C 13.203125 4.839844 13.398438 4.417969 13.511719 3.832031 C 13.59375 3.441406 13.707031 2.769531 13.820312 1.789062 L 14.070312 -0.0273438 L 14.628906 -3.945312 L 14.964844 -6.433594 L 15.46875 -9.929688 C 15.550781 -10.65625 15.609375 -11.1875 15.609375 -11.46875 L 15.609375 -12.558594 C 15.582031 -12.980469 15.46875 -13.257812 15.246094 -13.425781 C 15.132812 -13.566406 14.9375 -13.652344 14.6875 -13.707031 C 14.519531 -13.761719 14.265625 -13.820312 13.957031 -13.820312 C 13.652344 -13.875 13.007812 -13.875 12.027344 -13.875 L 5.875 -13.875 C 4.753906 -13.875 4 -13.875 3.609375 -13.820312 C 2.992188 -13.761719 2.574219 -13.59375 2.292969 -13.34375 C 2.070312 -13.117188 1.875 -12.699219 1.707031 -12.113281 C 1.648438 -11.777344 1.511719 -11.050781 1.34375 -9.929688 Z M 6.320312 -9.929688 L 11.496094 -9.929688 L 10.796875 -4.949219 C 10.742188 -4.644531 10.714844 -4.417969 10.65625 -4.308594 C 10.628906 -4.195312 10.601562 -4.140625 10.519531 -4.082031 C 10.460938 -4.027344 10.351562 -4 10.210938 -3.972656 C 10.097656 -3.972656 9.902344 -3.945312 9.59375 -3.945312 L 4.503906 -3.945312 L 4.839844 -6.519531 L 5.175781 -8.894531 C 5.230469 -9.175781 5.257812 -9.34375 5.257812 -9.425781 C 5.316406 -9.59375 5.34375 -9.707031 5.398438 -9.761719 C 5.453125 -9.847656 5.566406 -9.902344 5.679688 -9.902344 C 5.789062 -9.929688 5.984375 -9.929688 6.320312 -9.929688 Z M 6.320312 -9.929688 "/></g></g></g><g clip-path="url(#id3)"><path fill="#000000" d="M 221.964844 152.816406 C 220.96875 152.816406 220.488281 151.597656 221.222656 150.925781 L 223.242188 149.070312 L 226.800781 145.796875 C 226.941406 145.667969 227.011719 145.511719 227.011719 145.324219 C 227.011719 145.136719 226.941406 144.976562 226.800781 144.851562 L 223.242188 141.578125 L 221.222656 139.722656 C 220.488281 139.046875 220.96875 137.832031 221.964844 137.832031 C 222.25 137.832031 222.5 137.925781 222.710938 138.121094 L 226.46875 141.578125 L 230.03125 144.851562 C 230.171875 144.976562 230.238281 145.136719 230.238281 145.324219 C 230.238281 145.511719 230.171875 145.667969 230.03125 145.796875 L 226.472656 149.070312 L 222.707031 152.527344 C 222.496094 152.71875 222.25 152.816406 221.964844 152.816406 Z M 221.964844 152.816406 " fill-opacity="1" fill-rule="nonzero"/></g><g fill="#ff00ff" fill-opacity="1"><g transform="translate(154.629354, 227.20185)"><g><path d="M -10.570312 -14.972656 L -10.570312 -4.402344 L -17.617188 -4.402344 L -17.617188 -0.878906 L 0 -0.878906 L 0 -4.402344 L -7.046875 -4.402344 L -7.046875 -14.972656 L 0 -14.972656 L 0 -18.496094 L -17.617188 -18.496094 L -17.617188 -14.972656 Z M -10.570312 -14.972656 "/></g></g></g><g fill="#ff00ff" fill-opacity="1"><g transform="translate(154.629354, 198.52914)"><g><path d="M 0 -14.972656 C 0 -16.910156 -1.585938 -18.496094 -3.523438 -18.496094 L -17.617188 -18.496094 L -17.617188 -14.972656 L -3.523438 -14.972656 L -3.523438 -4.402344 L -17.617188 -4.402344 L -17.617188 -0.878906 L -3.523438 -0.878906 C -1.585938 -0.878906 0 -2.464844 0 -4.402344 Z M 0 -14.972656 "/></g></g></g><g fill="#ff00ff" fill-opacity="1"><g transform="translate(154.629354, 169.856431)"><g><path d="M -14.09375 -18.496094 C -16.007812 -18.496094 -17.617188 -16.933594 -17.617188 -14.972656 L -17.617188 -0.878906 L 0 -0.878906 L 0 -14.972656 C 0 -16.933594 -1.609375 -18.496094 -3.523438 -18.496094 L -7.046875 -18.496094 C -8.015625 -18.496094 -8.808594 -17.703125 -8.808594 -16.734375 C -8.808594 -17.703125 -9.601562 -18.496094 -10.570312 -18.496094 Z M -14.09375 -14.972656 L -10.570312 -14.972656 L -10.570312 -4.402344 L -14.09375 -4.402344 Z M -3.523438 -4.402344 L -7.046875 -4.402344 L -7.046875 -14.972656 L -3.523438 -14.972656 Z M -3.523438 -4.402344 "/></g></g></g><g fill="#00ffff" fill-opacity="1"><g transform="translate(155.248749, 224.51902)"><g><path d="M -10.570312 -14.972656 L -10.570312 -4.402344 L -17.617188 -4.402344 L -17.617188 -0.878906 L 0 -0.878906 L 0 -4.402344 L -7.046875 -4.402344 L -7.046875 -14.972656 L 0 -14.972656 L 0 -18.496094 L -17.617188 -18.496094 L -17.617188 -14.972656 Z M -10.570312 -14.972656 "/></g></g></g><g fill="#00ffff" fill-opacity="1"><g transform="translate(155.248749, 195.84631)"><g><path d="M 0 -14.972656 C 0 -16.910156 -1.585938 -18.496094 -3.523438 -18.496094 L -17.617188 -18.496094 L -17.617188 -14.972656 L -3.523438 -14.972656 L -3.523438 -4.402344 L -17.617188 -4.402344 L -17.617188 -0.878906 L -3.523438 -0.878906 C -1.585938 -0.878906 0 -2.464844 0 -4.402344 Z M 0 -14.972656 "/></g></g></g><g fill="#00ffff" fill-opacity="1"><g transform="translate(155.248749, 167.1736)"><g><path d="M -14.09375 -18.496094 C -16.007812 -18.496094 -17.617188 -16.933594 -17.617188 -14.972656 L -17.617188 -0.878906 L 0 -0.878906 L 0 -14.972656 C 0 -16.933594 -1.609375 -18.496094 -3.523438 -18.496094 L -7.046875 -18.496094 C -8.015625 -18.496094 -8.808594 -17.703125 -8.808594 -16.734375 C -8.808594 -17.703125 -9.601562 -18.496094 -10.570312 -18.496094 Z M -14.09375 -14.972656 L -10.570312 -14.972656 L -10.570312 -4.402344 L -14.09375 -4.402344 Z M -3.523438 -4.402344 L -7.046875 -4.402344 L -7.046875 -14.972656 L -3.523438 -14.972656 Z M -3.523438 -4.402344 "/></g></g></g><g fill="#004aad" fill-opacity="1"><g transform="translate(154.939053, 225.860435)"><g><path d="M -10.570312 -14.972656 L -10.570312 -4.402344 L -17.617188 -4.402344 L -17.617188 -0.878906 L 0 -0.878906 L 0 -4.402344 L -7.046875 -4.402344 L -7.046875 -14.972656 L 0 -14.972656 L 0 -18.496094 L -17.617188 -18.496094 L -17.617188 -14.972656 Z M -10.570312 -14.972656 "/></g></g></g><g fill="#004aad" fill-opacity="1"><g transform="translate(154.939053, 197.187725)"><g><path d="M 0 -14.972656 C 0 -16.910156 -1.585938 -18.496094 -3.523438 -18.496094 L -17.617188 -18.496094 L -17.617188 -14.972656 L -3.523438 -14.972656 L -3.523438 -4.402344 L -17.617188 -4.402344 L -17.617188 -0.878906 L -3.523438 -0.878906 C -1.585938 -0.878906 0 -2.464844 0 -4.402344 Z M 0 -14.972656 "/></g></g></g><g fill="#004aad" fill-opacity="1"><g transform="translate(154.939053, 168.515015)"><g><path d="M -14.09375 -18.496094 C -16.007812 -18.496094 -17.617188 -16.933594 -17.617188 -14.972656 L -17.617188 -0.878906 L 0 -0.878906 L 0 -14.972656 C 0 -16.933594 -1.609375 -18.496094 -3.523438 -18.496094 L -7.046875 -18.496094 C -8.015625 -18.496094 -8.808594 -17.703125 -8.808594 -16.734375 C -8.808594 -17.703125 -9.601562 -18.496094 -10.570312 -18.496094 Z M -14.09375 -14.972656 L -10.570312 -14.972656 L -10.570312 -4.402344 L -14.09375 -4.402344 Z M -3.523438 -4.402344 L -7.046875 -4.402344 L -7.046875 -14.972656 L -3.523438 -14.972656 Z M -3.523438 -4.402344 "/></g></g></g></svg>