<svg xmlns="http://www.w3.org/2000/svg" xmlns:xlink="http://www.w3.org/1999/xlink" width="143" zoomAndPan="magnify" viewBox="0 0 107.25 32.249999" height="43" preserveAspectRatio="xMidYMid meet" version="1.0"><defs><g/><clipPath id="id1"><path d="M 35.152344 8.207031 L 50.542969 8.207031 L 50.542969 20.542969 L 35.152344 20.542969 Z M 35.152344 8.207031 " clip-rule="nonzero"/></clipPath></defs><path fill="#fef2f0" d="M 46.882812 13.460938 C 47.039062 13.460938 47.175781 13.550781 47.234375 13.691406 C 47.292969 13.832031 47.261719 13.992188 47.152344 14.097656 C 47.046875 14.207031 46.882812 14.238281 46.742188 14.179688 C 46.601562 14.121094 46.507812 13.988281 46.507812 13.835938 C 46.507812 13.628906 46.675781 13.460938 46.882812 13.460938 Z M 46.882812 14.527344 C 47.070312 14.527344 47.246094 14.453125 47.378906 14.324219 C 47.511719 14.195312 47.585938 14.019531 47.585938 13.835938 C 47.585938 13.652344 47.511719 13.476562 47.382812 13.347656 C 47.25 13.214844 47.074219 13.144531 46.886719 13.144531 C 46.703125 13.144531 46.523438 13.214844 46.390625 13.347656 C 46.261719 13.476562 46.1875 13.652344 46.1875 13.835938 C 46.1875 14.015625 46.261719 14.191406 46.390625 14.324219 C 46.523438 14.453125 46.699219 14.527344 46.882812 14.527344 " fill-opacity="1" fill-rule="nonzero"/><path fill="#fef2f0" d="M 46.882812 16.875 C 46.730469 16.875 46.59375 16.78125 46.535156 16.644531 C 46.476562 16.503906 46.511719 16.34375 46.617188 16.234375 C 46.726562 16.128906 46.886719 16.097656 47.027344 16.15625 C 47.171875 16.210938 47.261719 16.347656 47.261719 16.5 C 47.261719 16.707031 47.09375 16.871094 46.882812 16.871094 Z M 46.882812 15.808594 C 46.699219 15.808594 46.519531 15.882812 46.390625 16.011719 C 46.257812 16.140625 46.183594 16.316406 46.183594 16.5 C 46.183594 16.683594 46.257812 16.859375 46.390625 16.988281 C 46.519531 17.121094 46.699219 17.191406 46.882812 17.191406 C 47.070312 17.191406 47.246094 17.121094 47.378906 16.988281 C 47.511719 16.859375 47.585938 16.683594 47.585938 16.5 C 47.585938 16.316406 47.511719 16.140625 47.378906 16.011719 C 47.246094 15.882812 47.070312 15.808594 46.882812 15.808594 " fill-opacity="1" fill-rule="nonzero"/><path fill="#fef2f0" d="M 45.539062 15.539062 C 45.386719 15.539062 45.246094 15.449219 45.191406 15.308594 C 45.132812 15.167969 45.164062 15.003906 45.273438 14.898438 C 45.382812 14.792969 45.546875 14.761719 45.6875 14.824219 C 45.828125 14.882812 45.917969 15.019531 45.917969 15.171875 C 45.914062 15.375 45.746094 15.539062 45.539062 15.539062 Z M 45.539062 14.472656 C 45.355469 14.472656 45.175781 14.546875 45.046875 14.675781 C 44.914062 14.804688 44.839844 14.980469 44.839844 15.164062 C 44.839844 15.347656 44.914062 15.523438 45.042969 15.652344 C 45.171875 15.78125 45.351562 15.855469 45.535156 15.855469 C 45.71875 15.859375 45.898438 15.785156 46.027344 15.660156 C 46.160156 15.53125 46.238281 15.355469 46.238281 15.171875 C 46.238281 14.988281 46.167969 14.808594 46.035156 14.679688 C 45.90625 14.546875 45.726562 14.472656 45.539062 14.472656 " fill-opacity="1" fill-rule="nonzero"/><path fill="#fef2f0" d="M 48.230469 15.539062 C 48.078125 15.539062 47.9375 15.449219 47.878906 15.308594 C 47.820312 15.167969 47.855469 15.007812 47.964844 14.898438 C 48.074219 14.792969 48.238281 14.761719 48.378906 14.820312 C 48.519531 14.882812 48.609375 15.019531 48.609375 15.171875 C 48.605469 15.375 48.4375 15.539062 48.230469 15.539062 Z M 48.230469 14.472656 C 48.046875 14.472656 47.867188 14.546875 47.738281 14.675781 C 47.605469 14.804688 47.53125 14.980469 47.53125 15.164062 C 47.53125 15.347656 47.601562 15.523438 47.734375 15.652344 C 47.863281 15.78125 48.039062 15.855469 48.226562 15.855469 C 48.410156 15.859375 48.589844 15.785156 48.71875 15.660156 C 48.851562 15.53125 48.925781 15.355469 48.929688 15.171875 C 48.929688 14.988281 48.859375 14.8125 48.726562 14.679688 C 48.597656 14.546875 48.417969 14.472656 48.230469 14.472656 " fill-opacity="1" fill-rule="nonzero"/><path fill="#fef2f0" d="M 40.535156 15.539062 L 39.347656 15.539062 C 39.257812 15.539062 39.1875 15.609375 39.1875 15.699219 L 39.1875 16.871094 L 38.433594 16.871094 L 38.433594 15.699219 C 38.433594 15.65625 38.417969 15.617188 38.386719 15.585938 C 38.355469 15.558594 38.316406 15.539062 38.273438 15.539062 L 37.089844 15.539062 L 37.089844 14.792969 L 38.273438 14.792969 C 38.316406 14.792969 38.355469 14.777344 38.386719 14.746094 C 38.417969 14.714844 38.433594 14.675781 38.433594 14.632812 L 38.433594 13.460938 L 39.1875 13.460938 L 39.1875 14.632812 C 39.1875 14.675781 39.203125 14.714844 39.234375 14.746094 C 39.265625 14.777344 39.304688 14.792969 39.347656 14.792969 L 40.535156 14.792969 Z M 40.695312 14.472656 L 39.507812 14.472656 L 39.507812 13.300781 C 39.507812 13.257812 39.492188 13.21875 39.460938 13.191406 C 39.429688 13.160156 39.390625 13.144531 39.347656 13.144531 L 38.273438 13.144531 C 38.183594 13.144531 38.113281 13.214844 38.113281 13.300781 L 38.113281 14.472656 L 36.925781 14.472656 C 36.839844 14.472656 36.765625 14.542969 36.765625 14.632812 L 36.765625 15.699219 C 36.765625 15.742188 36.785156 15.78125 36.8125 15.8125 C 36.84375 15.839844 36.882812 15.855469 36.925781 15.855469 L 38.113281 15.855469 L 38.113281 17.027344 C 38.113281 17.070312 38.128906 17.113281 38.15625 17.140625 C 38.1875 17.171875 38.230469 17.1875 38.273438 17.1875 L 39.347656 17.1875 C 39.390625 17.1875 39.429688 17.171875 39.460938 17.140625 C 39.492188 17.113281 39.507812 17.070312 39.507812 17.027344 L 39.507812 15.855469 L 40.695312 15.855469 C 40.738281 15.855469 40.777344 15.839844 40.808594 15.8125 C 40.839844 15.78125 40.855469 15.742188 40.855469 15.699219 L 40.855469 14.632812 C 40.855469 14.589844 40.839844 14.550781 40.808594 14.519531 C 40.777344 14.492188 40.738281 14.472656 40.695312 14.472656 " fill-opacity="1" fill-rule="nonzero"/><path fill="#fef2f0" d="M 42.203125 16.171875 L 41.664062 16.171875 C 41.574219 16.171875 41.5 16.242188 41.5 16.332031 C 41.5 16.417969 41.574219 16.492188 41.664062 16.492188 L 42.203125 16.492188 C 42.292969 16.492188 42.367188 16.417969 42.367188 16.332031 C 42.367188 16.242188 42.292969 16.171875 42.203125 16.171875 " fill-opacity="1" fill-rule="nonzero"/><path fill="#fef2f0" d="M 44.03125 16.171875 L 43.492188 16.171875 C 43.402344 16.171875 43.332031 16.242188 43.332031 16.332031 C 43.332031 16.417969 43.402344 16.492188 43.492188 16.492188 L 44.03125 16.492188 C 44.117188 16.492188 44.191406 16.417969 44.191406 16.332031 C 44.191406 16.242188 44.117188 16.171875 44.03125 16.171875 " fill-opacity="1" fill-rule="nonzero"/><g clip-path="url(#id1)"><path fill="#fef2f0" d="M 49.316406 20.101562 C 48.042969 20.671875 46.601562 18.96875 45.832031 17.875 L 45.832031 17.855469 C 45.835938 17.828125 45.835938 17.796875 45.832031 17.765625 L 45.832031 17.738281 C 45.832031 17.707031 45.824219 17.675781 45.820312 17.648438 C 45.8125 17.621094 45.820312 17.632812 45.820312 17.625 C 45.8125 17.59375 45.804688 17.566406 45.792969 17.535156 C 45.789062 17.527344 45.789062 17.519531 45.785156 17.511719 L 45.75 17.429688 C 45.746094 17.421875 45.742188 17.414062 45.738281 17.40625 C 45.726562 17.378906 45.710938 17.351562 45.699219 17.324219 L 45.683594 17.308594 C 45.667969 17.28125 45.652344 17.253906 45.636719 17.230469 C 45.628906 17.226562 45.625 17.21875 45.621094 17.210938 L 45.5625 17.140625 L 45.550781 17.125 C 45.527344 17.101562 45.507812 17.078125 45.484375 17.054688 L 45.46875 17.042969 L 45.398438 16.980469 L 45.382812 16.96875 L 45.304688 16.914062 L 45.292969 16.914062 C 45.265625 16.894531 45.234375 16.878906 45.203125 16.863281 L 45.195312 16.863281 C 45.164062 16.847656 45.132812 16.832031 45.101562 16.816406 C 44.945312 16.753906 44.78125 16.71875 44.617188 16.714844 L 44.5 16.714844 C 44.476562 16.714844 44.457031 16.714844 44.4375 16.726562 L 44.382812 16.726562 L 44.324219 16.738281 L 44.265625 16.753906 L 44.214844 16.769531 L 44.160156 16.789062 L 44.109375 16.8125 L 44.007812 16.863281 L 43.953125 16.894531 L 43.910156 16.925781 C 43.894531 16.933594 43.878906 16.949219 43.863281 16.960938 L 43.824219 16.992188 L 43.777344 17.035156 C 43.761719 17.046875 43.75 17.058594 43.738281 17.070312 L 43.691406 17.117188 L 43.664062 17.152344 L 43.617188 17.210938 L 43.597656 17.242188 C 43.578125 17.269531 43.5625 17.296875 43.546875 17.324219 C 43.546875 17.328125 43.546875 17.332031 43.546875 17.339844 C 43.527344 17.371094 43.511719 17.40625 43.496094 17.441406 L 43.488281 17.460938 C 43.476562 17.488281 43.464844 17.519531 43.457031 17.546875 C 43.453125 17.558594 43.449219 17.570312 43.449219 17.582031 C 43.449219 17.609375 43.433594 17.632812 43.425781 17.660156 C 43.421875 17.683594 43.425781 17.6875 43.425781 17.699219 C 43.421875 17.71875 43.417969 17.738281 43.417969 17.753906 L 42.296875 17.753906 C 42.292969 17.738281 42.292969 17.71875 42.289062 17.699219 L 42.289062 17.660156 C 42.289062 17.644531 42.273438 17.609375 42.265625 17.582031 C 42.265625 17.570312 42.261719 17.558594 42.257812 17.546875 C 42.246094 17.519531 42.238281 17.488281 42.226562 17.460938 L 42.203125 17.457031 C 42.191406 17.417969 42.175781 17.386719 42.15625 17.351562 C 42.15625 17.347656 42.15625 17.34375 42.15625 17.339844 C 42.136719 17.3125 42.121094 17.28125 42.101562 17.253906 L 42.082031 17.226562 L 42.042969 17.167969 L 42.015625 17.132812 L 41.960938 17.082031 C 41.949219 17.066406 41.9375 17.058594 41.925781 17.046875 L 41.875 17.003906 L 41.839844 16.972656 C 41.820312 16.957031 41.804688 16.945312 41.789062 16.933594 L 41.742188 16.90625 L 41.691406 16.875 L 41.648438 16.851562 L 41.59375 16.824219 L 41.539062 16.800781 L 41.429688 16.761719 L 41.375 16.746094 L 41.320312 16.734375 L 41.261719 16.734375 C 41.242188 16.734375 41.222656 16.734375 41.199219 16.726562 L 41.082031 16.726562 C 40.925781 16.726562 40.769531 16.757812 40.625 16.816406 C 40.589844 16.828125 40.558594 16.84375 40.527344 16.859375 L 40.519531 16.859375 C 40.488281 16.875 40.460938 16.890625 40.429688 16.910156 L 40.417969 16.910156 L 40.324219 16.980469 C 40.300781 16.996094 40.277344 17.019531 40.253906 17.039062 C 40.246094 17.046875 40.242188 17.050781 40.238281 17.054688 C 40.214844 17.074219 40.195312 17.097656 40.171875 17.121094 L 40.160156 17.136719 L 40.101562 17.207031 C 40.097656 17.214844 40.09375 17.21875 40.089844 17.226562 C 40.070312 17.25 40.054688 17.277344 40.039062 17.304688 L 40.027344 17.324219 C 40.011719 17.347656 39.996094 17.375 39.984375 17.40625 C 39.980469 17.414062 39.976562 17.417969 39.972656 17.425781 L 39.9375 17.511719 C 39.9375 17.515625 39.933594 17.523438 39.929688 17.53125 C 39.921875 17.5625 39.914062 17.589844 39.90625 17.621094 C 39.90625 17.621094 39.90625 17.636719 39.898438 17.644531 C 39.890625 17.65625 39.886719 17.703125 39.882812 17.734375 L 39.882812 17.761719 C 39.878906 17.792969 39.875 17.820312 39.871094 17.851562 L 39.871094 17.871094 C 39.09375 18.972656 37.648438 20.675781 36.378906 20.101562 C 35.390625 19.664062 35.386719 18.238281 35.558594 17.121094 C 35.757812 15.941406 36.105469 14.789062 36.59375 13.695312 C 36.863281 13.101562 37.359375 12.640625 37.976562 12.410156 C 38.59375 12.179688 39.277344 12.199219 39.878906 12.46875 C 39.957031 12.507812 40.039062 12.546875 40.113281 12.59375 C 40.347656 12.730469 40.558594 12.902344 40.734375 13.105469 C 40.839844 13.226562 40.996094 13.292969 41.15625 13.292969 L 44.535156 13.292969 C 44.695312 13.296875 44.851562 13.226562 44.960938 13.105469 C 45.136719 12.902344 45.347656 12.730469 45.578125 12.59375 C 45.65625 12.546875 45.738281 12.507812 45.816406 12.46875 C 46.417969 12.199219 47.101562 12.179688 47.714844 12.40625 C 48.332031 12.636719 48.832031 13.097656 49.101562 13.691406 C 49.589844 14.785156 49.9375 15.933594 50.136719 17.113281 C 50.308594 18.238281 50.300781 19.664062 49.316406 20.101562 Z M 44.617188 18.828125 C 44.375 18.828125 44.144531 18.734375 43.976562 18.566406 C 43.808594 18.402344 43.710938 18.171875 43.710938 17.9375 C 43.710938 17.730469 43.785156 17.527344 43.921875 17.367188 C 44.078125 17.171875 44.308594 17.054688 44.5625 17.035156 C 44.8125 17.019531 45.058594 17.105469 45.242188 17.277344 C 45.425781 17.449219 45.527344 17.6875 45.527344 17.9375 C 45.527344 18.171875 45.429688 18.402344 45.257812 18.570312 C 45.089844 18.738281 44.855469 18.832031 44.617188 18.828125 Z M 41.078125 18.828125 C 40.839844 18.828125 40.609375 18.734375 40.441406 18.566406 C 40.273438 18.402344 40.175781 18.175781 40.175781 17.9375 C 40.171875 17.691406 40.277344 17.453125 40.460938 17.28125 C 40.644531 17.109375 40.890625 17.023438 41.140625 17.039062 C 41.390625 17.058594 41.625 17.175781 41.785156 17.371094 C 41.917969 17.53125 41.992188 17.730469 41.992188 17.9375 C 41.988281 18.175781 41.894531 18.40625 41.722656 18.574219 C 41.550781 18.738281 41.320312 18.832031 41.078125 18.828125 Z M 37.625 12 C 37.625 11.847656 37.75 11.722656 37.902344 11.722656 L 39.753906 11.722656 C 39.828125 11.722656 39.898438 11.753906 39.949219 11.804688 C 40.003906 11.855469 40.03125 11.925781 40.03125 12 L 40.03125 12.195312 L 40.007812 12.1875 C 39.921875 12.148438 39.832031 12.113281 39.742188 12.082031 L 39.707031 12.070312 C 39.621094 12.042969 39.53125 12.019531 39.445312 12.003906 L 39.398438 11.992188 C 39.3125 11.972656 39.222656 11.960938 39.136719 11.953125 L 39.089844 11.953125 C 39 11.953125 38.910156 11.941406 38.820312 11.941406 L 38.785156 11.941406 C 38.695312 11.941406 38.597656 11.949219 38.507812 11.960938 C 38.414062 11.972656 38.320312 11.988281 38.230469 12.011719 L 38.195312 12.011719 C 38.109375 12.035156 38.023438 12.058594 37.9375 12.085938 L 37.894531 12.105469 C 37.808594 12.132812 37.730469 12.167969 37.648438 12.203125 L 37.628906 12.214844 Z M 45.664062 12 C 45.664062 11.847656 45.789062 11.722656 45.941406 11.722656 L 47.792969 11.722656 C 47.867188 11.722656 47.9375 11.753906 47.988281 11.804688 C 48.039062 11.855469 48.070312 11.925781 48.070312 12 L 48.070312 12.21875 L 48.050781 12.210938 C 47.96875 12.167969 47.882812 12.132812 47.796875 12.105469 L 47.753906 12.085938 C 47.664062 12.058594 47.578125 12.03125 47.488281 12.011719 L 47.449219 12.011719 C 47.355469 11.988281 47.261719 11.972656 47.167969 11.964844 L 47.136719 11.964844 C 47.042969 11.953125 46.945312 11.945312 46.847656 11.945312 L 46.835938 11.945312 C 46.746094 11.945312 46.660156 11.945312 46.574219 11.960938 L 46.539062 11.960938 C 46.453125 11.972656 46.367188 11.984375 46.28125 12 L 46.234375 12.011719 C 46.152344 12.03125 46.074219 12.054688 45.984375 12.078125 L 45.941406 12.09375 C 45.855469 12.121094 45.773438 12.15625 45.6875 12.191406 L 45.664062 12.203125 Z M 49.394531 13.566406 C 49.179688 13.089844 48.832031 12.6875 48.390625 12.402344 L 48.390625 12 C 48.390625 11.84375 48.328125 11.691406 48.214844 11.578125 C 48.101562 11.46875 47.949219 11.40625 47.792969 11.40625 L 45.941406 11.40625 C 45.78125 11.40625 45.628906 11.46875 45.519531 11.578125 C 45.40625 11.691406 45.339844 11.84375 45.339844 12 L 45.339844 12.371094 C 45.109375 12.515625 44.898438 12.695312 44.71875 12.902344 C 44.671875 12.949219 44.605469 12.980469 44.539062 12.976562 L 42.949219 12.976562 C 42.445312 11.90625 42.714844 11.339844 43 10.753906 C 43.304688 10.125 43.613281 9.480469 42.988281 8.304688 C 42.972656 8.261719 42.9375 8.230469 42.894531 8.214844 C 42.851562 8.199219 42.804688 8.203125 42.765625 8.226562 C 42.726562 8.246094 42.695312 8.28125 42.683594 8.324219 C 42.671875 8.371094 42.679688 8.414062 42.707031 8.453125 C 43.257812 9.484375 43.003906 10.007812 42.707031 10.617188 C 42.410156 11.222656 42.109375 11.855469 42.59375 12.980469 L 41.15625 12.980469 C 41.089844 12.984375 41.023438 12.957031 40.976562 12.90625 C 40.796875 12.699219 40.585938 12.519531 40.355469 12.375 L 40.355469 12 C 40.355469 11.84375 40.289062 11.691406 40.175781 11.578125 C 40.0625 11.46875 39.914062 11.40625 39.753906 11.40625 L 37.902344 11.40625 C 37.746094 11.40625 37.59375 11.46875 37.480469 11.578125 C 37.367188 11.691406 37.304688 11.84375 37.300781 12 L 37.300781 12.402344 C 36.863281 12.6875 36.515625 13.089844 36.300781 13.566406 C 35.800781 14.6875 35.445312 15.867188 35.242188 17.082031 C 34.96875 18.828125 35.320312 19.980469 36.246094 20.394531 C 37.566406 20.988281 38.941406 19.671875 39.929688 18.328125 C 40.050781 18.671875 40.324219 18.945312 40.671875 19.066406 C 41.023438 19.191406 41.410156 19.152344 41.722656 18.960938 C 42.039062 18.769531 42.25 18.449219 42.296875 18.085938 L 43.398438 18.085938 C 43.445312 18.449219 43.65625 18.769531 43.972656 18.957031 C 44.289062 19.148438 44.675781 19.1875 45.023438 19.066406 C 45.371094 18.941406 45.644531 18.671875 45.765625 18.328125 C 46.585938 19.441406 47.671875 20.539062 48.777344 20.539062 C 49.007812 20.539062 49.238281 20.488281 49.449219 20.394531 C 50.375 19.980469 50.726562 18.828125 50.453125 17.082031 C 50.25 15.871094 49.894531 14.6875 49.394531 13.566406 " fill-opacity="1" fill-rule="nonzero"/></g><g fill="#fef2f0" fill-opacity="1"><g transform="translate(16.942916, 20.069884)"><g><path d="M 3.800781 0.199219 C 4.96875 0.199219 6.003906 -0.398438 6.414062 -1.367188 L 6.425781 -1.367188 L 6.636719 0 L 8.640625 0 L 8.640625 -4.671875 L 3.890625 -4.671875 L 3.890625 -3.113281 L 5.894531 -3.113281 C 5.804688 -2.546875 5.316406 -2.167969 4.648438 -2.167969 C 3.714844 -2.167969 3.113281 -2.914062 3.113281 -4.058594 C 3.113281 -5.125 3.582031 -5.816406 4.304688 -5.816406 C 4.757812 -5.816406 5.136719 -5.492188 5.257812 -5.003906 L 7.917969 -5.449219 C 7.582031 -7.160156 6.171875 -8.261719 4.335938 -8.261719 C 1.835938 -8.261719 0.222656 -6.59375 0.222656 -4.003906 C 0.222656 -1.457031 1.632812 0.199219 3.800781 0.199219 Z M 3.800781 0.199219 "/></g></g></g><g fill="#fef2f0" fill-opacity="1"><g transform="translate(25.929985, 20.069884)"><g><path d="M -0.0117188 0 L 2.890625 0 L 3.179688 -1.222656 L 5.148438 -1.222656 L 5.402344 0 L 8.363281 0 L 5.960938 -8.003906 L 2.402344 -8.003906 Z M 3.523438 -3.113281 L 4.167969 -5.792969 L 4.191406 -5.792969 L 4.804688 -3.113281 Z M 3.523438 -3.113281 "/></g></g></g><g fill="#fef2f0" fill-opacity="1"><g transform="translate(34.281871, 20.069884)"><g/></g></g><g fill="#fef2f0" fill-opacity="1"><g transform="translate(35.948197, 20.069884)"><g/></g></g><g fill="#fef2f0" fill-opacity="1"><g transform="translate(37.614523, 20.069884)"><g/></g></g><g fill="#fef2f0" fill-opacity="1"><g transform="translate(39.280849, 20.069884)"><g/></g></g><g fill="#fef2f0" fill-opacity="1"><g transform="translate(40.947175, 20.069884)"><g/></g></g><g fill="#fef2f0" fill-opacity="1"><g transform="translate(42.613502, 20.069884)"><g/></g></g><g fill="#fef2f0" fill-opacity="1"><g transform="translate(44.279828, 20.069884)"><g/></g></g><g fill="#fef2f0" fill-opacity="1"><g transform="translate(45.946154, 20.069884)"><g/></g></g><g fill="#fef2f0" fill-opacity="1"><g transform="translate(47.61248, 20.069884)"><g/></g></g><g fill="#fef2f0" fill-opacity="1"><g transform="translate(49.278807, 20.069884)"><g/></g></g><g fill="#fef2f0" fill-opacity="1"><g transform="translate(50.945133, 20.069884)"><g><path d="M 0.445312 0 L 3.335938 0 L 3.335938 -8.003906 L 0.445312 -8.003906 Z M 0.445312 0 "/></g></g></g><g fill="#fef2f0" fill-opacity="1"><g transform="translate(54.722148, 20.069884)"><g><path d="M 0.445312 0 L 3.058594 0 L 3.058594 -4.671875 L 3.078125 -4.671875 L 5.394531 0 L 8.671875 0 L 8.671875 -8.003906 L 6.058594 -8.003906 L 6.058594 -3.3125 L 6.039062 -3.3125 L 3.726562 -8.003906 L 0.445312 -8.003906 Z M 0.445312 0 "/></g></g></g><g fill="#fef2f0" fill-opacity="1"><g transform="translate(63.831414, 20.069884)"><g><path d="M 3.800781 0.199219 C 4.96875 0.199219 6.003906 -0.398438 6.414062 -1.367188 L 6.425781 -1.367188 L 6.636719 0 L 8.640625 0 L 8.640625 -4.671875 L 3.890625 -4.671875 L 3.890625 -3.113281 L 5.894531 -3.113281 C 5.804688 -2.546875 5.316406 -2.167969 4.648438 -2.167969 C 3.714844 -2.167969 3.113281 -2.914062 3.113281 -4.058594 C 3.113281 -5.125 3.582031 -5.816406 4.304688 -5.816406 C 4.757812 -5.816406 5.136719 -5.492188 5.257812 -5.003906 L 7.917969 -5.449219 C 7.582031 -7.160156 6.171875 -8.261719 4.335938 -8.261719 C 1.835938 -8.261719 0.222656 -6.59375 0.222656 -4.003906 C 0.222656 -1.457031 1.632812 0.199219 3.800781 0.199219 Z M 3.800781 0.199219 "/></g></g></g><g fill="#fef2f0" fill-opacity="1"><g transform="translate(72.818483, 20.069884)"><g/></g></g><g fill="#fef2f0" fill-opacity="1"><g transform="translate(74.484809, 20.069884)"><g><path d="M 0.445312 0 L 3.335938 0 L 3.335938 -3.003906 L 5.003906 -3.003906 L 5.003906 0 L 7.894531 0 L 7.894531 -8.003906 L 5.003906 -8.003906 L 5.003906 -5.226562 L 3.335938 -5.226562 L 3.335938 -8.003906 L 0.445312 -8.003906 Z M 0.445312 0 "/></g></g></g><g fill="#fef2f0" fill-opacity="1"><g transform="translate(82.816452, 20.069884)"><g><path d="M 4.148438 0.253906 C 6.539062 0.253906 7.871094 -0.902344 7.871094 -2.945312 L 7.871094 -8.003906 L 4.980469 -8.003906 L 4.980469 -3.167969 C 4.980469 -2.546875 4.679688 -2.203125 4.148438 -2.203125 C 3.613281 -2.203125 3.3125 -2.546875 3.3125 -3.167969 L 3.3125 -8.003906 L 0.421875 -8.003906 L 0.421875 -2.945312 C 0.421875 -0.902344 1.757812 0.253906 4.148438 0.253906 Z M 4.148438 0.253906 "/></g></g></g><g fill="#fef2f0" fill-opacity="1"><g transform="translate(91.092554, 20.069884)"><g><path d="M 0.445312 0 L 4.816406 0 C 6.660156 0 7.671875 -0.789062 7.671875 -2.191406 C 7.671875 -3.222656 7.117188 -3.878906 6.117188 -4.046875 L 6.117188 -4.070312 C 7.050781 -4.292969 7.5625 -4.914062 7.5625 -5.835938 C 7.5625 -7.226562 6.515625 -8.003906 4.636719 -8.003906 L 0.445312 -8.003906 Z M 3.335938 -4.835938 L 3.335938 -6.058594 L 4.125 -6.058594 C 4.515625 -6.058594 4.726562 -5.847656 4.726562 -5.46875 C 4.726562 -5.070312 4.515625 -4.835938 4.125 -4.835938 Z M 3.335938 -1.945312 L 3.335938 -3.222656 L 4.167969 -3.222656 C 4.570312 -3.222656 4.78125 -2.980469 4.78125 -2.535156 C 4.78125 -2.15625 4.570312 -1.945312 4.167969 -1.945312 Z M 3.335938 -1.945312 "/></g></g></g></svg>